<svg width="104" height="63" viewBox="0 0 104 63" fill="none" xmlns="http://www.w3.org/2000/svg">
	<path d="M17.7286 56.5564C16.7539 58.9931 11.1292 60.11 8.43861 60.3638C7.93096 60.3638 6.36739 60.0287 4.17434 58.6885C1.43303 57.0133 -0.699105 51.5307 0.214666 48.9416C1.12844 46.3526 9.35238 29.9047 10.2661 28.8387C11.1799 27.7726 12.3983 26.8588 14.2258 26.8588C16.0534 26.8588 16.358 27.0111 17.7286 26.8588C19.0993 26.7065 18.947 25.7928 18.947 25.0313V21.8331C18.947 21.2239 18.6424 18.0257 18.947 17.2642C19.2516 16.5028 22.4498 13.6092 23.9727 13.6092C25.4957 13.6092 30.2168 14.066 31.8921 15.1321C33.2323 15.985 33.7704 17.4165 33.8719 18.0257C34.2273 17.9749 34.938 17.7516 34.938 17.2642C34.938 16.7769 34.2273 15.6398 33.8719 15.1321C34.075 14.3199 34.5725 12.6954 34.938 12.6954C35.3949 12.6954 37.3747 12.2385 37.9839 12.6954C38.5931 13.1523 39.2022 14.5229 41.0298 15.1321C42.8573 15.7413 42.4004 17.2642 44.5326 20.6147C46.2078 23.2038 45.7509 22.5946 48.7968 25.0313C51.8427 27.468 54.1272 21.5285 54.8886 20.6147C55.6501 19.701 61.7419 7.82193 63.8741 5.99439C66.0062 4.16685 70.2705 3.25308 75.4485 5.99439C80.0173 8.41319 79.1036 14.3706 78.3421 17.2642C76.1592 21.5793 71.4888 30.7271 70.2705 32.7983C68.7475 35.3874 62.5034 48.0279 61.1327 50.4646C59.7621 52.9013 54.7364 58.9931 53.0611 59.7546C51.3859 60.5161 50.4721 60.3638 47.1216 60.3638C43.7711 60.3638 41.7913 56.5564 40.116 53.8151C38.4408 51.0738 33.7196 41.6315 31.8921 39.9562C30.0645 38.281 26.714 40.2608 25.648 41.6315C24.7951 42.728 21.4345 49.3985 19.8607 52.5967C19.5562 52.9013 18.7033 54.1197 17.7286 56.5564Z" fill="#505050"/>
	<path d="M18.2754 15.0772C18.2754 19.7033 14.3889 23.4535 9.5946 23.4535C4.80031 23.4535 0.913771 19.7033 0.913771 15.0772C0.913771 10.4512 4.80031 6.70099 9.5946 6.70099C14.3889 6.70099 18.2754 10.4512 18.2754 15.0772Z" fill="#505050"/>
	<path d="M8.52853 2.74131C8.52853 4.2553 7.3012 5.48263 5.78722 5.48263C4.27323 5.48263 3.0459 4.2553 3.0459 2.74131C3.0459 1.22733 4.27323 0 5.78722 0C7.3012 0 8.52853 1.22733 8.52853 2.74131Z" fill="#505050"/>
	<path d="M14.9249 5.02574C14.9249 5.95096 14.1749 6.70099 13.2497 6.70099C12.3245 6.70099 11.5744 5.95096 11.5744 5.02574C11.5744 4.10053 12.3245 3.35049 13.2497 3.35049C14.1749 3.35049 14.9249 4.10053 14.9249 5.02574Z" fill="#505050"/>
	<path d="M37.7692 12.7928C37.7692 16.4937 34.7691 19.4938 31.0682 19.4938C27.3674 19.4938 24.3672 16.4937 24.3672 12.7928C24.3672 9.09194 27.3674 6.09181 31.0682 6.09181C34.7691 6.09181 37.7692 9.09194 37.7692 12.7928Z" fill="#505050"/>
	<path d="M28.0223 19.7984C28.0223 22.4899 25.8404 24.6718 23.1489 24.6718C20.4573 24.6718 18.2754 22.4899 18.2754 19.7984C18.2754 17.1068 20.4573 14.9249 23.1489 14.9249C25.8404 14.9249 28.0223 17.1068 28.0223 19.7984Z" fill="#505050"/>
	<path d="M18.58 26.3471C18.58 28.2816 17.0118 29.8499 15.0772 29.8499C13.1427 29.8499 11.5744 28.2816 11.5744 26.3471C11.5744 24.4125 13.1427 22.8443 15.0772 22.8443C17.0118 22.8443 18.58 24.4125 18.58 26.3471Z" fill="#505050"/>
	<path d="M24.3672 8.37624C24.3672 10.3108 22.799 11.879 20.8644 11.879C18.9299 11.879 17.3617 10.3108 17.3617 8.37624C17.3617 6.4417 18.9299 4.87345 20.8644 4.87345C22.799 4.87345 24.3672 6.4417 24.3672 8.37624Z" fill="#505050"/>
	<path d="M72.1879 8.37624C72.1879 11.993 69.256 14.9249 65.6392 14.9249C62.0225 14.9249 59.0905 11.993 59.0905 8.37624C59.0905 4.75949 62.0225 1.82754 65.6392 1.82754C69.256 1.82754 72.1879 4.75949 72.1879 8.37624Z" fill="#505050"/>
	<path d="M86.7382 41.9657C82.4777 44.7781 77.2209 44.3265 74.9967 40.9571C72.7726 37.5877 74.4234 32.5764 78.6838 29.7641C82.9443 26.9517 88.2011 27.4033 90.4253 30.7727C92.6495 34.1421 90.9987 39.1534 86.7382 41.9657Z" fill="#505050"/>
	<path d="M99.3232 61.0309C95.0627 63.8432 89.8059 63.3917 87.5817 60.0223C85.3576 56.6529 87.0083 51.6416 91.2688 48.8292C95.5293 46.0168 100.786 46.4684 103.01 49.8378C105.234 53.2072 103.584 58.2185 99.3232 61.0309Z" fill="#505050"/>
	<path d="M90.7609 31.2811L103.01 49.8378L87.5817 60.0223L75.3324 41.4655L90.7609 31.2811Z" fill="#505050"/>
</svg>
