<svg width="97" height="58" viewBox="0 0 97 58" fill="none" xmlns="http://www.w3.org/2000/svg">
<path d="M17.1026 51.9156C16.2079 54.1524 11.0447 55.1776 8.5749 55.4106C8.10891 55.4106 6.67365 55.103 4.66055 53.8728C2.14417 52.335 0.186996 47.3023 1.02579 44.9257C1.86458 42.5491 9.4137 27.4509 10.2525 26.4723C11.0913 25.4937 12.2097 24.6549 13.8872 24.6549C15.5648 24.6549 15.8444 24.7947 17.1026 24.6549C18.3608 24.5151 18.221 23.6763 18.221 22.9773V20.0416C18.221 19.4824 17.9414 16.5466 18.221 15.8476C18.5006 15.1486 21.4364 12.4924 22.8344 12.4924C24.2323 12.4924 28.5661 12.9118 30.1039 13.8904C31.3341 14.6733 31.8281 15.9874 31.9213 16.5466C32.2474 16.5 32.8998 16.295 32.8998 15.8476C32.8998 15.4002 32.2474 14.3564 31.9213 13.8904C32.1076 13.1448 32.5643 11.6537 32.8998 11.6537C33.3192 11.6537 35.1366 11.2343 35.6958 11.6537C36.255 12.073 36.8142 13.3312 38.4918 13.8904C40.1694 14.4496 39.75 15.8476 41.7071 18.9232C43.2449 21.2997 42.8255 20.7406 45.6215 22.9773C48.4175 25.2141 50.5145 19.762 51.2134 18.9232C51.9124 18.0844 57.5044 7.1801 59.4616 5.50252C61.4187 3.82493 65.3331 2.98614 70.0862 5.50252C74.2802 7.72284 73.4414 13.1914 72.7424 15.8476C70.7386 19.8086 66.4515 28.2058 65.3331 30.1071C63.9351 32.4836 58.2034 44.0869 56.9452 46.3237C55.687 48.5605 51.0736 54.1524 49.5359 54.8514C47.9981 55.5504 47.1593 55.4106 44.0837 55.4106C41.0082 55.4106 39.1908 51.9156 37.653 49.3992C36.1152 46.8829 31.7815 38.2154 30.1039 36.6776C28.4263 35.1398 25.3507 36.9572 24.3721 38.2154C23.5893 39.2219 20.5044 45.3451 19.0598 48.2809C18.7802 48.5605 17.9973 49.6788 17.1026 51.9156Z" fill="url(#paint0_linear)"/>
<path d="M17.6046 13.8401C17.6046 18.0865 14.0369 21.529 9.63604 21.529C5.23515 21.529 1.66753 18.0865 1.66753 13.8401C1.66753 9.59358 5.23515 6.15113 9.63604 6.15113C14.0369 6.15113 17.6046 9.59358 17.6046 13.8401Z" fill="url(#paint1_linear)"/>
<path d="M8.65745 2.51637C8.65745 3.90613 7.53083 5.03275 6.14108 5.03275C4.75132 5.03275 3.6247 3.90613 3.6247 2.51637C3.6247 1.12662 4.75132 0 6.14108 0C7.53083 0 8.65745 1.12662 8.65745 2.51637Z" fill="url(#paint2_linear)"/>
<path d="M14.529 4.61335C14.529 5.46264 13.8405 6.15113 12.9912 6.15113C12.1419 6.15113 11.4534 5.46264 11.4534 4.61335C11.4534 3.76406 12.1419 3.07557 12.9912 3.07557C13.8405 3.07557 14.529 3.76406 14.529 4.61335Z" fill="url(#paint3_linear)"/>
<path d="M35.4988 11.7431C35.4988 15.1403 32.7448 17.8942 29.3476 17.8942C25.9504 17.8942 23.1965 15.1403 23.1965 11.7431C23.1965 8.3459 25.9504 5.59194 29.3476 5.59194C32.7448 5.59194 35.4988 8.3459 35.4988 11.7431Z" fill="url(#paint4_linear)"/>
<path d="M26.5517 18.1738C26.5517 20.6445 24.5488 22.6474 22.0781 22.6474C19.6074 22.6474 17.6046 20.6445 17.6046 18.1738C17.6046 15.7031 19.6074 13.7003 22.0781 13.7003C24.5488 13.7003 26.5517 15.7031 26.5517 18.1738Z" fill="url(#paint5_linear)"/>
<path d="M17.8841 24.1851C17.8841 25.9609 16.4446 27.4005 14.6688 27.4005C12.893 27.4005 11.4534 25.9609 11.4534 24.1851C11.4534 22.4093 12.893 20.9698 14.6688 20.9698C16.4446 20.9698 17.8841 22.4093 17.8841 24.1851Z" fill="url(#paint6_linear)"/>
<path d="M23.1965 7.68892C23.1965 9.46471 21.7569 10.9043 19.9811 10.9043C18.2053 10.9043 16.7658 9.46471 16.7658 7.68892C16.7658 5.91312 18.2053 4.47355 19.9811 4.47355C21.7569 4.47355 23.1965 5.91312 23.1965 7.68892Z" fill="url(#paint7_linear)"/>
<path d="M67.0932 7.68892C67.0932 11.0089 64.4018 13.7003 61.0819 13.7003C57.7619 13.7003 55.0705 11.0089 55.0705 7.68892C55.0705 4.36895 57.7619 1.67758 61.0819 1.67758C64.4018 1.67758 67.0932 4.36895 67.0932 7.68892Z" fill="url(#paint8_linear)"/>
<path d="M80.4496 38.5222C76.5387 41.1038 71.7132 40.6893 69.6716 37.5964C67.6299 34.5034 69.1452 29.9033 73.0561 27.3217C76.967 24.7401 81.7925 25.1547 83.8341 28.2476C85.8758 31.3405 84.3605 35.9406 80.4496 38.5222Z" fill="url(#paint9_linear)"/>
<path d="M92.0019 56.0229C88.091 58.6045 83.2655 58.19 81.2239 55.0971C79.1822 52.0042 80.6975 47.4041 84.6084 44.8225C88.5193 42.2409 93.3448 42.6554 95.3864 45.7483C97.4281 48.8412 95.9128 53.4413 92.0019 56.0229Z" fill="url(#paint10_linear)"/>
<path d="M84.1422 28.7143L95.3864 45.7483L81.2239 55.0971L69.9796 38.063L84.1422 28.7143Z" fill="url(#paint11_linear)"/>
<defs>
<linearGradient id="paint0_linear" x1="82.529" y1="25.6271" x2="82.529" y2="57.7176" gradientUnits="userSpaceOnUse">
<stop stop-color="#A03EAD"/>
<stop offset="1" stop-color="#378ECF"/>
</linearGradient>
<linearGradient id="paint1_linear" x1="82.529" y1="25.6271" x2="82.529" y2="57.7176" gradientUnits="userSpaceOnUse">
<stop stop-color="#A03EAD"/>
<stop offset="1" stop-color="#378ECF"/>
</linearGradient>
<linearGradient id="paint2_linear" x1="82.529" y1="25.6271" x2="82.529" y2="57.7176" gradientUnits="userSpaceOnUse">
<stop stop-color="#A03EAD"/>
<stop offset="1" stop-color="#378ECF"/>
</linearGradient>
<linearGradient id="paint3_linear" x1="82.529" y1="25.6271" x2="82.529" y2="57.7176" gradientUnits="userSpaceOnUse">
<stop stop-color="#A03EAD"/>
<stop offset="1" stop-color="#378ECF"/>
</linearGradient>
<linearGradient id="paint4_linear" x1="82.529" y1="25.6271" x2="82.529" y2="57.7176" gradientUnits="userSpaceOnUse">
<stop stop-color="#A03EAD"/>
<stop offset="1" stop-color="#378ECF"/>
</linearGradient>
<linearGradient id="paint5_linear" x1="82.529" y1="25.6271" x2="82.529" y2="57.7176" gradientUnits="userSpaceOnUse">
<stop stop-color="#A03EAD"/>
<stop offset="1" stop-color="#378ECF"/>
</linearGradient>
<linearGradient id="paint6_linear" x1="82.529" y1="25.6271" x2="82.529" y2="57.7176" gradientUnits="userSpaceOnUse">
<stop stop-color="#A03EAD"/>
<stop offset="1" stop-color="#378ECF"/>
</linearGradient>
<linearGradient id="paint7_linear" x1="82.529" y1="25.6271" x2="82.529" y2="57.7176" gradientUnits="userSpaceOnUse">
<stop stop-color="#A03EAD"/>
<stop offset="1" stop-color="#378ECF"/>
</linearGradient>
<linearGradient id="paint8_linear" x1="82.529" y1="25.6271" x2="82.529" y2="57.7176" gradientUnits="userSpaceOnUse">
<stop stop-color="#A03EAD"/>
<stop offset="1" stop-color="#378ECF"/>
</linearGradient>
<linearGradient id="paint9_linear" x1="82.529" y1="25.6271" x2="82.529" y2="57.7176" gradientUnits="userSpaceOnUse">
<stop stop-color="#A03EAD"/>
<stop offset="1" stop-color="#378ECF"/>
</linearGradient>
<linearGradient id="paint10_linear" x1="82.529" y1="25.6271" x2="82.529" y2="57.7176" gradientUnits="userSpaceOnUse">
<stop stop-color="#A03EAD"/>
<stop offset="1" stop-color="#378ECF"/>
</linearGradient>
<linearGradient id="paint11_linear" x1="82.529" y1="25.6271" x2="82.529" y2="57.7176" gradientUnits="userSpaceOnUse">
<stop stop-color="#A03EAD"/>
<stop offset="1" stop-color="#378ECF"/>
</linearGradient>
</defs>
</svg>
